<svg width="900" height="600" viewBox="0 0 900 600" fill="none" xmlns="http://www.w3.org/2000/svg">
<path d="M234.689 338.305C232.337 342.502 227.186 343.079 218.933 342.282C212.727 341.68 207.067 341.215 200.86 337.831C196.516 335.464 193.077 332.262 190.567 329.152C187.847 325.782 184.05 321.937 185.911 318.116C188.469 312.868 203.259 308.448 217.621 315.676C233.398 323.619 236.99 334.202 234.689 338.305Z" fill="#F9FAFB"/>
<path d="M706.271 310.617C696.654 317.789 681.393 313.604 681.393 313.604C681.393 313.604 681.732 297.792 691.355 290.626C700.972 283.454 716.226 287.633 716.226 287.633C716.226 287.633 715.887 303.445 706.271 310.617Z" fill="#F9FAFB"/>
<path d="M216.121 174.364C225.262 184.944 243.683 184.017 243.683 184.017C243.683 184.017 247.272 165.937 238.121 155.362C228.98 144.782 210.568 145.703 210.568 145.703C210.568 145.703 206.98 163.784 216.121 174.364Z" fill="#F9FAFB"/>
<path d="M439.888 510.776C435.531 510.776 432 507.244 432 502.888C432 498.532 435.531 495 439.888 495C444.244 495 447.776 498.532 447.776 502.888C447.776 507.244 444.244 510.776 439.888 510.776Z" fill="#E5E7EB"/>
<path d="M508.671 446.342C503.882 446.342 500 442.46 500 437.671C500 432.882 503.882 429 508.671 429C513.46 429 517.342 432.882 517.342 437.671C517.342 442.46 513.46 446.342 508.671 446.342Z" fill="#E5E7EB"/>
<path d="M679 180.641C675.134 180.641 672 177.507 672 173.641C672 169.775 675.134 166.641 679 166.641C682.866 166.641 686 169.775 686 173.641C686 177.507 682.866 180.641 679 180.641Z" fill="#E5E7EB"/>
<path d="M191.966 210.362C193.203 214.981 190.462 219.728 185.844 220.965C181.226 222.203 176.479 219.462 175.242 214.844C174.004 210.225 176.745 205.478 181.363 204.241C185.981 203.004 190.728 205.744 191.966 210.362Z" fill="#E5E7EB"/>
<path d="M321.517 136.034C315.156 136.034 310 130.878 310 124.517C310 118.156 315.156 113 321.517 113C327.878 113 333.034 118.156 333.034 124.517C333.034 130.878 327.878 136.034 321.517 136.034Z" fill="#E5E7EB"/>
<path d="M744.455 409.692C739.562 409.692 735.596 406.519 735.596 402.605C735.596 398.691 739.562 395.518 744.455 395.518C749.348 395.518 753.314 398.691 753.314 402.605C753.314 406.519 749.348 409.692 744.455 409.692Z" fill="#E5E7EB"/>
<path d="M233.45 471.725C233.45 478.753 227.753 484.45 220.725 484.45C213.697 484.45 208 478.753 208 471.725C208 464.697 213.697 459 220.725 459C227.753 459 233.45 464.697 233.45 471.725Z" fill="#E5E7EB"/>
<path d="M659.522 391.983H659.754C661.126 411.428 675.587 411.728 675.587 411.728C675.587 411.728 659.641 412.039 659.641 434.507C659.641 412.039 643.695 411.728 643.695 411.728C643.695 411.728 658.15 411.428 659.522 391.983Z" fill="#E5E7EB"/>
<path d="M427.613 346.589H577.872M309.552 475.379H610.069C633.779 475.379 653 456.158 653 432.448V131.931C653 108.221 633.779 89 610.069 89H395.414C371.704 89 352.483 108.221 352.483 131.931V432.448C352.483 456.158 333.262 475.379 309.552 475.379C285.841 475.379 266.621 456.158 266.621 432.448V196.328C266.621 172.617 285.841 153.397 309.552 153.397H352.483L309.552 475.379ZM427.613 174.863H577.872H427.613ZM427.613 260.725H577.872H427.613Z" stroke="#E5E7EB" stroke-width="4" stroke-linecap="round" stroke-linejoin="round"/>
<path fill-rule="evenodd" clip-rule="evenodd" d="M271.673 311.543C271.673 361.341 312.039 401.707 361.837 401.707C411.634 401.707 452 361.341 452 311.543C452 261.746 411.634 221.379 361.837 221.379C312.039 221.379 271.673 261.746 271.673 311.543Z" fill="#F9FAFB" stroke="#1C64F2" stroke-width="20.082" stroke-linecap="round" stroke-linejoin="round"/>
<path d="M252 421.379L290.525 382.854" stroke="#1C64F2" stroke-width="20.082" stroke-linecap="round" stroke-linejoin="round"/>
<path fill-rule="evenodd" clip-rule="evenodd" d="M541 420.708V379.139C541.001 372.268 542.804 365.517 546.229 359.56C549.654 353.603 554.581 348.649 560.519 345.191L599.8 322.329C605.8 318.839 612.618 317 619.559 317C626.5 317 633.318 318.839 639.318 322.329L678.599 345.191C684.539 348.647 689.469 353.601 692.895 359.558C696.322 365.515 698.125 372.267 698.126 379.139V420.708C698.125 427.579 696.322 434.33 692.898 440.287C689.473 446.244 684.546 451.198 678.608 454.656L639.326 477.518C633.326 481.008 626.509 482.847 619.568 482.847C612.626 482.847 605.809 481.008 599.809 477.518L560.527 454.656C554.587 451.2 549.657 446.246 546.231 440.289C542.804 434.332 541.001 427.58 541 420.708Z" fill="#1C64F2"/>
<path d="M619.563 399.924V360.642V399.924ZM619.554 430.476C619.268 430.476 618.984 430.532 618.72 430.642C618.455 430.751 618.215 430.912 618.013 431.115C617.811 431.318 617.651 431.559 617.543 431.824C617.434 432.089 617.379 432.373 617.381 432.659C617.381 433.091 617.509 433.514 617.75 433.873C617.99 434.232 618.331 434.512 618.731 434.677C619.13 434.842 619.57 434.884 619.994 434.799C620.417 434.714 620.806 434.505 621.111 434.199C621.416 433.893 621.623 433.503 621.706 433.079C621.789 432.655 621.745 432.215 621.578 431.817C621.411 431.418 621.13 431.078 620.769 430.839C620.409 430.6 619.986 430.474 619.554 430.476Z" stroke="#F9FAFB" stroke-width="13.094" stroke-linecap="round" stroke-linejoin="round"/>
</svg>
