<svg width="1623" height="1659" viewBox="0 0 1623 1659" fill="none" xmlns="http://www.w3.org/2000/svg">
<g clip-path="url(#clip0_242_325)">
<path opacity="0.5" d="M1151.28 759.703L1145.32 765.665L1053.5 673.771C1040.88 661.145 1020.2 661.145 1007.59 673.771L725.812 955.766L632.238 862.119C619.621 849.492 598.944 849.492 586.327 862.119L494.505 954.013L488.547 948.05C475.931 935.423 475.931 914.73 488.547 902.103L586.327 804.247C598.944 791.62 619.621 791.62 632.238 804.247L725.812 897.894L1007.59 615.899C1020.2 603.273 1040.88 603.273 1053.5 615.899L1151.28 713.756C1163.89 726.382 1163.89 747.076 1151.28 759.703Z" fill="#1C55B1"/>
<path d="M1145.32 765.665L748.942 1162.35C736.325 1174.98 715.648 1174.98 703.031 1162.35L495.206 954.013L587.028 862.119C599.644 849.492 620.322 849.492 632.938 862.119L726.512 955.766L1008.29 673.771C1020.9 661.145 1041.58 661.145 1054.2 673.771L1146.02 765.665H1145.32Z" fill="#1C55B1"/>
<path opacity="0.8" d="M1151.28 817.926L748.943 1220.58C736.326 1233.2 715.648 1233.2 703.032 1220.58L488.898 1006.27C476.281 993.646 476.281 972.953 488.898 960.326L494.856 954.363L702.681 1162.7C715.298 1175.33 735.975 1175.33 748.592 1162.7L1144.97 766.016L1150.93 771.979C1163.54 784.605 1163.54 805.299 1150.93 817.926H1151.28Z" fill="#1C55B1"/>
<path d="M1075.93 1659C1279.2 1659 1504.89 1482.58 1515.41 1474.51C1514.01 1475.56 1511.9 1476.26 1510.5 1476.97C1498.24 1483.63 1484.57 1486.09 1483.52 1486.44C1452.32 1492.05 1405.36 1459.78 1304.43 1419.44C1275.34 1535.54 1196.84 1596.92 1075.93 1659Z" fill="#1C55B1"/>
<path d="M1514.36 1475.56C1502.44 1483.63 1492.28 1486.44 1483.16 1487.84C1452.32 1493.45 1404.31 1460.13 1305.13 1419.8L1309.33 677.279C1429.54 757.949 1535.73 857.559 1622.3 973.654C1622.3 1277.04 1629.66 1386.83 1514.71 1475.91L1514.36 1475.56Z" fill="url(#paint0_linear_242_325)"/>
<path d="M318.222 1419.8C219.04 1460.13 171.027 1493.45 140.186 1487.84C131.074 1486.44 120.91 1483.98 108.994 1475.56C-6.3084 1386.83 1.05135 1277.04 1.05135 973.654C87.616 857.208 193.807 757.598 314.016 677.279L318.222 1419.8Z" fill="url(#paint1_linear_242_325)"/>
<g opacity="0.9">
<path d="M547.075 1659C343.806 1659 118.107 1482.58 107.593 1474.51C108.995 1475.56 111.097 1476.26 112.499 1476.97C124.766 1483.63 138.434 1486.09 139.485 1486.44C170.676 1492.05 217.639 1459.78 318.572 1419.44C347.661 1535.54 426.165 1596.92 547.075 1659Z" fill="#1C55B1"/>
</g>
<path opacity="0.8" d="M1304.43 1419.44C1275.34 1535.54 1196.83 1596.92 1076.28 1659H547.425C426.865 1596.92 348.011 1535.54 319.272 1419.44L320.324 1419.09C486.794 1353.86 650.812 1321.24 812.376 1321.24C973.94 1321.24 1137.96 1353.86 1304.43 1419.09C1304.43 1419.09 1305.13 1419.09 1305.48 1419.44H1304.43Z" fill="#1C55B1"/>
<path d="M1621.95 969.094V973.303C1535.38 856.858 1429.19 757.248 1308.98 676.928C1308.98 674.122 1308.98 671.316 1308.98 668.51C1311.09 447.193 1283.75 339.867 1197.89 209.742L1204.2 214.653L1548.7 489.984C1585.15 524.707 1610.03 569.602 1617.39 619.757C1625.8 676.227 1622.65 932.267 1621.95 969.094Z" fill="#1C55B1"/>
<path opacity="0.8" d="M1308.63 668.51C1308.63 671.316 1308.63 674.122 1308.63 676.928L870.904 396.336C855.834 386.515 838.661 381.254 821.489 379.501C818.334 379.501 804.666 379.501 801.162 379.501C783.989 380.904 767.167 386.165 751.746 396.336L314.016 676.928C314.016 674.122 314.016 671.316 314.016 668.51C311.914 446.843 339.6 339.516 425.814 208.69L575.112 89.4387L621.023 58.5736C622.775 57.5214 624.177 56.4691 625.93 55.4169C675.695 22.7981 732.12 4.55962 788.895 0.35074C793.101 0.35074 797.307 0.35074 801.512 0C805.017 0 808.171 0 811.676 0C814.83 0 818.334 0 821.839 0C826.045 0 830.25 0 834.456 0.35074C891.581 4.55962 947.656 22.7981 997.422 55.0662C999.174 56.1184 1000.58 57.1706 1002.33 58.2228L1044.03 86.6328L1197.89 209.392C1283.75 339.867 1311.09 447.193 1308.98 668.16L1308.63 668.51Z" fill="#1C55B1"/>
<path d="M314.366 668.51C314.366 671.316 314.366 674.122 314.366 676.928C194.157 757.598 87.9661 857.208 1.40137 973.303H1.05091C1.05091 962.08 -3.15466 679.383 5.60694 619.758C13.3172 568.199 39.602 521.901 77.4521 486.827L419.505 213.601L425.814 208.69C339.599 339.516 311.913 446.843 314.016 668.51H314.366Z" fill="#1C55B1"/>
</g>
<defs>
<linearGradient id="paint0_linear_242_325" x1="1244.85" y1="1385.07" x2="1567.66" y2="826.563" gradientUnits="userSpaceOnUse">
<stop offset="0.23" stop-color="#1C55B1" stop-opacity="0.4"/>
<stop offset="0.33" stop-color="#1C55B1" stop-opacity="0.44"/>
<stop offset="0.52" stop-color="#1C55B1" stop-opacity="0.55"/>
<stop offset="0.73" stop-color="#1C55B1" stop-opacity="0.7"/>
</linearGradient>
<linearGradient id="paint1_linear_242_325" x1="378.151" y1="1385.07" x2="55.3435" y2="826.563" gradientUnits="userSpaceOnUse">
<stop offset="0.23" stop-color="#1C55B1" stop-opacity="0.5"/>
<stop offset="0.33" stop-color="#1C55B1" stop-opacity="0.44"/>
<stop offset="0.52" stop-color="#1C55B1" stop-opacity="0.55"/>
<stop offset="0.73" stop-color="#1C55B1" stop-opacity="0.7"/>
</linearGradient>
<clipPath id="clip0_242_325">
<rect width="1623" height="1659" fill="white"/>
</clipPath>
</defs>
</svg>
